# xmcd
#
# Track frame offsets:
#	150
#	12628
#	34426
#	51138
#	66830
#	83740
#	106888
#	120246
#	135475
#	150572
#	167260
#	182281
#	194429
#	209032
#	223999
#
# Disc length: 3206 seconds
#
# Revision: 4
# Processed by: cddbd v1.5.1PL0 Copyright (c) Steve Scherf et al.
# Submitted via: audiograbber 1.83.01
#
DISCID=ce0c840f
DTITLE=1995-06 Country Radio - 1995-06 Country Radio
DYEAR=1995
DGENRE=Country
TTITLE0=Mark Collie - Three Words, Two Hearts, One Night
TTITLE1=Brooks and Dunn - You're Gonna Miss Me
TTITLE2=4 Runner - A Heart With 4 Wheel Drive
TTITLE3=Victoria Shaw - Forgiveness
TTITLE4=Patty Loveless - Halfway Down
TTITLE5=Lorrie Morgan - I Didn't Know My Own Strength (Dance Mix)
TTITLE6=Daryle Singletary - I Let Her Lie
TTITLE7=Ty Herndon - I Want My Goodbye Back
TTITLE8=Kim Richey - Just My Luck
TTITLE9=Daron Norwood - My Girl Friday
TTITLE10=Jeff Carson - Not On Your Love
TTITLE11=Ty England - Should've Asked Her Faster
TTITLE12=Shelby Lynn - Slow Me Down
TTITLE13=Bryan White - Someone Else's Star
TTITLE14=David Ball - What Do You Want With This Love
EXTD=
EXTT0=
EXTT1=
EXTT2=
EXTT3=
EXTT4=
EXTT5=
EXTT6=
EXTT7=
EXTT8=
EXTT9=
EXTT10=
EXTT11=
EXTT12=
EXTT13=
EXTT14=
PLAYORDER=
